<svg width="211" height="40" viewBox="0 0 211 40" fill="none" xmlns="http://www.w3.org/2000/svg">
<mask id="mask0_17122_5866" style="mask-type:luminance" maskUnits="userSpaceOnUse" x="0" y="0" width="211" height="40">
<path d="M210.695 0H0V40H210.695V0Z" fill="white"/>
</mask>
<g mask="url(#mask0_17122_5866)">
<path d="M61.8359 27.8806V11.873H72.4289C72.495 12.1001 72.5233 12.3555 72.5233 12.5731C72.5233 12.7624 72.495 13.0556 72.4572 13.3111H63.3894V19.1673H71.2991C71.3648 19.3943 71.393 19.6498 71.393 19.8674C71.393 20.0566 71.3648 20.3499 71.3273 20.6053H63.3894V26.4331H72.4289C72.495 26.6602 72.5233 26.9156 72.5233 27.1332C72.5233 27.3224 72.495 27.6157 72.4572 27.8712H61.8359V27.8806Z" fill="black"/>
<path d="M80.5266 27.7195L75.2158 11.9295C75.4794 11.8633 75.7338 11.8633 75.9973 11.8633C76.2609 11.8633 76.6092 11.8633 76.8353 11.8916L81.9579 27.0099L87.08 11.8916C87.3061 11.8633 87.664 11.8633 87.918 11.8633C88.182 11.8633 88.436 11.8633 88.6995 11.9295L83.3795 27.7195C82.9277 27.8519 82.5698 27.8803 81.9579 27.8803C81.3364 27.8803 80.9877 27.8519 80.5266 27.7195Z" fill="black"/>
<path d="M91.6094 27.8806V11.873H102.202C102.268 12.1001 102.297 12.3555 102.297 12.5731C102.297 12.7624 102.268 13.0556 102.231 13.3111H93.1628V19.1673H101.073C101.139 19.3943 101.167 19.6498 101.167 19.8674C101.167 20.0566 101.139 20.3499 101.101 20.6053H93.1628V26.4331H102.202C102.268 26.6602 102.297 26.9156 102.297 27.1332C102.297 27.3224 102.268 27.6157 102.231 27.8712H91.6094V27.8806Z" fill="black"/>
<path d="M118.407 11.9011C118.633 11.8727 118.962 11.8727 119.217 11.8727C119.443 11.8727 119.772 11.8727 119.961 11.9011V27.7195C119.349 27.8803 118.887 27.8803 118.209 27.8803C117.889 27.8803 117.399 27.8803 117.079 27.7857L108.172 12.7336V27.8519C107.908 27.8803 107.588 27.8803 107.334 27.8803C107.07 27.8803 106.778 27.8803 106.618 27.8519V11.9957C107.108 11.8633 107.296 11.8633 107.983 11.8633C108.661 11.8633 108.991 11.8633 109.537 12.0241L118.417 27.0099V11.9011H118.407Z" fill="black"/>
<path d="M123.068 13.3108C123.04 13.0553 123.04 12.7053 123.04 12.5066C123.04 12.2796 123.04 12.0903 123.106 11.8633H134.641C134.706 12.0903 134.706 12.2796 134.706 12.5066C134.706 12.6958 134.706 13.0553 134.678 13.3108H129.659V27.8141C129.339 27.8803 129.047 27.8803 128.878 27.8803C128.68 27.8803 128.426 27.8803 128.096 27.8141V13.3108H123.068Z" fill="black"/>
<path d="M144.424 11.9393C144.744 11.873 145.007 11.873 145.205 11.873C145.365 11.873 145.657 11.873 145.987 11.9393V26.4426H154.603C154.631 26.698 154.631 27.0197 154.631 27.1427C154.631 27.3319 154.631 27.6252 154.603 27.8806H144.433V11.9393H144.424Z" fill="black"/>
<path d="M156.9 21.8926V17.7961C156.9 14.2767 156.929 11.7129 163.285 11.7129C169.631 11.7129 169.669 14.2767 169.669 17.7961V21.8926C169.669 25.412 169.64 28.0421 163.285 28.0421C156.929 28.0421 156.9 25.412 156.9 21.8926ZM158.454 17.8245V21.921C158.454 25.3458 158.878 26.5946 163.285 26.5946C167.691 26.5946 168.115 25.3458 168.115 21.921V17.8245C168.115 14.3997 167.691 13.1509 163.285 13.1509C158.878 13.1509 158.454 14.3997 158.454 17.8245Z" fill="black"/>
<path d="M185.732 19.6883V27.465C184.273 27.8529 181.844 28.0421 180.384 28.0421C176.298 28.0421 173.548 26.5663 173.548 22.2143V17.5407C173.548 13.1888 176.298 11.7129 180.384 11.7129C181.844 11.7129 184.207 11.9021 185.666 12.29C185.638 12.8387 185.572 13.2171 185.346 13.6334C183.981 13.2834 181.721 13.1509 180.328 13.1509C177.023 13.1509 175.111 14.3997 175.111 17.3137V22.4413C175.111 25.3552 177.051 26.6041 180.328 26.6041C181.298 26.6041 182.729 26.5379 184.179 26.3203V21.0695H181.194C181.128 20.8141 181.128 20.5208 181.128 20.3694C181.128 20.2086 181.128 19.887 181.194 19.6315H184.885C185.083 19.6221 185.412 19.6504 185.732 19.6883Z" fill="black"/>
<path d="M191.504 27.8144C191.184 27.8806 190.892 27.8806 190.723 27.8806C190.525 27.8806 190.271 27.8806 189.941 27.8144V11.9393C190.261 11.873 190.525 11.873 190.723 11.873C190.883 11.873 191.175 11.873 191.504 11.9393V27.8144Z" fill="black"/>
<path d="M195.714 17.5407C195.714 13.1888 198.463 11.7129 202.55 11.7129C203.971 11.7129 206.344 11.9021 207.832 12.29C207.804 12.8387 207.738 13.2171 207.474 13.6334C206.147 13.2834 203.877 13.1509 202.484 13.1509C199.179 13.1509 197.267 14.3997 197.267 17.3137V22.4413C197.267 25.3552 199.179 26.6041 202.484 26.6041C203.877 26.6041 206.175 26.4432 207.503 26.0932C207.794 26.6041 207.823 26.8974 207.823 27.4745C206.335 27.8624 203.971 28.0516 202.54 28.0516C198.453 28.0516 195.704 26.5757 195.704 22.2238V17.5407H195.714Z" fill="black"/>
<path d="M19.0773 25.3837L20.2167 26.8502L11.9775 29.1113L16.8174 36.3204L29.0019 32.6591L22.3259 24.5039L19.0773 25.3837Z" fill="#D77B7B"/>
<path d="M7.79635 22.8944L13.0223 21.5699L9.05809 16.2246L0.941406 18.1451L8.45546 30.0846L11.9771 29.1101L7.79635 22.8944Z" fill="#E7DB64"/>
<g opacity="0.6">
<path d="M13.0219 21.5703L7.7959 22.8948L11.9767 29.1105L20.2158 26.8494L19.0764 25.383L16.3834 26.1115L13.0219 21.5703Z" fill="#FF0000"/>
</g>
<path d="M13.0219 21.5703L7.7959 22.8948L11.9767 29.1105L20.2158 26.8494L19.0764 25.383L16.3834 26.1115L13.0219 21.5703Z" fill="#F8B772"/>
<path d="M32.7769 21.7887L26.1761 14.9297L24.9709 15.223L21.2139 16.1406L27.4191 23.1321L25.357 23.6903L29.1516 28.099L40.0086 24.9959L35.9124 20.9372L32.7769 21.7887Z" fill="#77A5D5"/>
<path d="M29.1333 14.2094L35.9129 20.936L42.815 19.0722L32.2595 9.55469L23.0693 11.6928L26.1766 14.9284L29.1333 14.2094Z" fill="#8569D3"/>
<g opacity="0.6">
<path d="M26.1768 14.928L32.7774 21.787L35.913 20.9356L29.1334 14.209L26.1768 14.928Z" fill="#1F8AFF"/>
</g>
<path d="M26.1768 14.928L32.7774 21.787L35.913 20.9356L29.1334 14.209L26.1768 14.928Z" fill="#6989B3"/>
<path d="M11.5157 15.6471L15.6023 20.9073L18.7284 20.1125L22.3254 24.5023L25.3573 23.6887L19.2745 16.6121L21.2143 16.139L21.186 16.1107L20.4798 15.3159L14.8207 16.6878L12.6833 14.0293L8.20117 15.07L9.05803 16.2242L11.5157 15.6471Z" fill="#6AD2A2"/>
<g opacity="0.6">
<path d="M15.6025 20.908L19.0771 25.3829L22.3256 24.503L18.7287 20.1133L15.6025 20.908Z" fill="#FF0000"/>
</g>
<path d="M15.6025 20.908L19.0771 25.3829L22.3256 24.503L18.7287 20.1133L15.6025 20.908Z" fill="#B9B0A6"/>
<g opacity="0.6">
<path d="M11.5162 15.6484L9.05859 16.2256L13.0228 21.5709L15.6028 20.9086L11.5162 15.6484Z" fill="#FDFF1F"/>
</g>
<path d="M11.5162 15.6484L9.05859 16.2256L13.0228 21.5709L15.6028 20.9086L11.5162 15.6484Z" fill="#CBEABB"/>
<g opacity="0.6">
<path d="M13.0225 21.5704L16.384 26.1116L19.077 25.3831L15.6025 20.9082L13.0225 21.5704Z" fill="#FF0000"/>
</g>
<g opacity="0.6">
<path d="M13.0225 21.5704L16.384 26.1116L19.077 25.3831L15.6025 20.9082L13.0225 21.5704Z" fill="#FDFF1F"/>
</g>
<path d="M13.0225 21.5704L16.384 26.1116L19.077 25.3831L15.6025 20.9082L13.0225 21.5704Z" fill="#E9EABB"/>
<g opacity="0.6">
<path d="M25.3572 23.6903L27.4193 23.1321L21.2141 16.1406L19.2744 16.6137L25.3572 23.6903Z" fill="#1F8AFF"/>
</g>
<path d="M25.3572 23.6903L27.4193 23.1321L21.2141 16.1406L19.2744 16.6137L25.3572 23.6903Z" fill="#71DEE9"/>
<path d="M18.2014 12.7428L20.48 15.3161L24.8209 14.2755L16.6854 5.73242L7.55176 7.66242L12.6835 14.0295L18.2014 12.7428Z" fill="#99DD70"/>
<g opacity="0.6">
<path d="M12.6836 14.0308L14.8211 16.6893L20.4802 15.3175L18.2014 12.7441L12.6836 14.0308Z" fill="#00FFD5"/>
</g>
<path d="M12.6836 14.0308L14.8211 16.6893L20.4802 15.3175L18.2014 12.7441L12.6836 14.0308Z" fill="#8DEFBF"/>
<path d="M42.3352 3.01758L34.209 4.80565L44.2561 13.1027L53.0225 10.8889L42.3352 3.01758Z" fill="#CF4386"/>
<g opacity="0.2">
<path d="M32.2594 9.55458L23.0693 11.6927L26.1766 14.9283L24.9713 15.2215L21.2143 16.1392L21.186 16.1109L20.4798 15.3161L24.8207 14.2755L16.6851 5.73242L7.55151 7.66242L12.6833 14.0295L8.20123 15.0702L9.05809 16.2244L0.941406 18.1449L8.45546 30.0844L11.9771 29.1099L16.817 36.319L29.0014 32.6577L22.3254 24.5025L25.3574 23.6889L29.1521 28.0976L40.009 24.9945L35.9129 20.9358L42.8149 19.0721L32.2594 9.55458Z" fill="white"/>
<path d="M42.3352 3.01758L34.209 4.80565L44.2561 13.1027L53.0225 10.8889L42.3352 3.01758Z" fill="white"/>
</g>
</g>
</svg>
